<svg width="113.4" height="113.4" xmlns="http://www.w3.org/2000/svg">
 <style type="text/css">.st0{fill:#444444;}</style>

 <g>
  <title>background</title>
  <rect fill="none" id="canvas_background" height="402" width="582" y="-1" x="-1"/>
 </g>
 <g>
  <title>Layer 1</title>
  <g stroke="null" id="svg_1">
   <g stroke="null" id="svg_2">
    <path stroke="null" id="svg_3" d="m44.227028,39.599999l0,21.453874l24.945947,0l0,-21.453874l-24.945947,0zm24.114415,0.820295l0,13.818819l-6.844144,-5.994465l-5.756757,5.678967l-3.901802,-3.34428l-6.844144,5.994465l0,-16.153505l23.346848,0zm-23.282884,19.813283l0,-2.587085l6.844144,-5.994465l6.588289,5.552767l0.511712,-0.630996l-2.622523,-2.208487l5.181081,-5.11107l6.844144,5.994465l0,4.984871l-23.346848,0z" class="st0"/>
    <path stroke="null" id="svg_4" d="m55.484686,48.307748c1.343243,0 2.430631,-1.072694 2.430631,-2.397786c0,-1.325092 -1.087387,-2.397786 -2.430631,-2.397786s-2.430631,1.135793 -2.430631,2.460886c0,1.261993 1.087387,2.334686 2.430631,2.334686zm0,-3.975277c0.895496,0 1.599099,0.694096 1.599099,1.577491s-0.703604,1.577491 -1.599099,1.577491s-1.599099,-0.694096 -1.599099,-1.577491s0.703604,-1.577491 1.599099,-1.577491z" class="st0"/>
   </g>
   <g stroke="null" id="svg_5">
    <path stroke="null" id="svg_6" d="m35.847748,68.562729c0,0 0.063964,0 0,0c0.063964,0 0.063964,0.0631 0.127928,0.0631c0,0 0.063964,0.0631 0.063964,0.0631l3.006306,3.912177c0,-0.0631 0,-0.126199 0,-0.189299c0,-0.0631 0,-0.126199 0,-0.189299l0,-3.659778l0.63964,0l0,5.17417l-0.383784,0c-0.063964,0 -0.127928,0 -0.127928,0c-0.063964,0 -0.063964,-0.0631 -0.127928,-0.126199l-3.006306,-3.912177c0,0.0631 0,0.126199 0,0.189299c0,0.0631 0,0.126199 0,0.189299l0,3.659778l-0.63964,0l0,-5.17417l0.383784,0c0,0 0.063964,0 0.063964,0z" class="st0"/>
    <path stroke="null" id="svg_7" d="m45.826127,71.149814c0,0.378598 -0.063964,0.757196 -0.191892,1.072694c-0.127928,0.315498 -0.31982,0.630996 -0.511712,0.820295s-0.511712,0.441697 -0.831532,0.567897c-0.31982,0.126199 -0.63964,0.189299 -1.023423,0.189299c-0.383784,0 -0.767568,-0.0631 -1.023423,-0.189299c-0.31982,-0.126199 -0.575676,-0.315498 -0.831532,-0.567897s-0.383784,-0.504797 -0.511712,-0.820295c-0.127928,-0.315498 -0.191892,-0.694096 -0.191892,-1.072694c0,-0.378598 0.063964,-0.757196 0.191892,-1.072694c0.127928,-0.315498 0.31982,-0.630996 0.511712,-0.820295s0.511712,-0.441697 0.831532,-0.567897s0.63964,-0.189299 1.023423,-0.189299c0.383784,0 0.767568,0.0631 1.023423,0.189299c0.31982,0.126199 0.575676,0.315498 0.831532,0.567897s0.383784,0.504797 0.511712,0.820295c0.127928,0.315498 0.191892,0.694096 0.191892,1.072694zm-0.703604,0c0,-0.315498 -0.063964,-0.630996 -0.127928,-0.883395s-0.191892,-0.441697 -0.383784,-0.630996c-0.191892,-0.189299 -0.383784,-0.315498 -0.575676,-0.378598c-0.255856,-0.0631 -0.511712,-0.126199 -0.767568,-0.126199c-0.255856,0 -0.511712,0.0631 -0.767568,0.126199c-0.255856,0.0631 -0.447748,0.252399 -0.575676,0.378598s-0.255856,0.378598 -0.383784,0.630996c-0.063964,0.252399 -0.127928,0.567897 -0.127928,0.883395s0.063964,0.630996 0.127928,0.883395c0.063964,0.252399 0.191892,0.441697 0.383784,0.630996c0.191892,0.189299 0.383784,0.315498 0.575676,0.378598c0.255856,0.0631 0.511712,0.126199 0.767568,0.126199c0.255856,0 0.511712,-0.0631 0.767568,-0.126199c0.255856,-0.0631 0.447748,-0.252399 0.575676,-0.378598c0.191892,-0.189299 0.255856,-0.378598 0.383784,-0.630996c0.063964,-0.252399 0.127928,-0.567897 0.127928,-0.883395z" class="st0"/>
    <path stroke="null" id="svg_8" d="m50.111713,68.562729l0,0.567897l-1.727027,0l0,4.606273l-0.703604,0l0,-4.606273l-1.663063,0l0,-0.567897l4.093694,0z" class="st0"/>
    <path stroke="null" id="svg_9" d="m55.804506,68.562729l0,0.567897l-2.494595,0l0,1.829889l2.174775,0l0,0.567897l-2.174775,0l0,2.208487l-0.703604,0l0,-5.17417l3.198198,0z" class="st0"/>
    <path stroke="null" id="svg_10" d="m61.497299,71.149814c0,0.378598 -0.063964,0.757196 -0.191892,1.072694c-0.127928,0.315498 -0.31982,0.630996 -0.511712,0.820295s-0.511712,0.441697 -0.831532,0.567897c-0.31982,0.126199 -0.63964,0.189299 -1.023423,0.189299s-0.767568,-0.0631 -1.023423,-0.189299c-0.31982,-0.126199 -0.575676,-0.315498 -0.831532,-0.567897c-0.255856,-0.252399 -0.383784,-0.504797 -0.511712,-0.820295c-0.127928,-0.315498 -0.191892,-0.694096 -0.191892,-1.072694c0,-0.378598 0.063964,-0.757196 0.191892,-1.072694c0.127928,-0.315498 0.31982,-0.630996 0.511712,-0.820295c0.255856,-0.252399 0.511712,-0.441697 0.831532,-0.567897c0.31982,-0.126199 0.63964,-0.189299 1.023423,-0.189299s0.767568,0.0631 1.023423,0.189299c0.31982,0.126199 0.575676,0.315498 0.831532,0.567897s0.383784,0.504797 0.511712,0.820295c0.127928,0.315498 0.191892,0.694096 0.191892,1.072694zm-0.767568,0c0,-0.315498 -0.063964,-0.630996 -0.127928,-0.883395c-0.063964,-0.252399 -0.191892,-0.441697 -0.383784,-0.630996c-0.191892,-0.189299 -0.383784,-0.315498 -0.575676,-0.378598c-0.255856,-0.0631 -0.511712,-0.126199 -0.767568,-0.126199c-0.255856,0 -0.511712,0.0631 -0.767568,0.126199c-0.255856,0.0631 -0.447748,0.252399 -0.575676,0.378598c-0.191892,0.189299 -0.255856,0.378598 -0.383784,0.630996c-0.063964,0.252399 -0.127928,0.567897 -0.127928,0.883395s0.063964,0.630996 0.127928,0.883395c0.063964,0.252399 0.191892,0.441697 0.383784,0.630996c0.191892,0.189299 0.383784,0.315498 0.575676,0.378598c0.255856,0.0631 0.511712,0.126199 0.767568,0.126199c0.255856,0 0.511712,-0.0631 0.767568,-0.126199c0.255856,-0.0631 0.447748,-0.252399 0.575676,-0.378598c0.191892,-0.189299 0.255856,-0.378598 0.383784,-0.630996c0.127928,-0.252399 0.127928,-0.567897 0.127928,-0.883395z" class="st0"/>
    <path stroke="null" id="svg_11" d="m64.503605,73.169002c0.191892,0 0.383784,-0.0631 0.575676,-0.126199c0.191892,-0.0631 0.31982,-0.189299 0.447748,-0.315498c0.127928,-0.126199 0.191892,-0.315498 0.255856,-0.441697c0.063964,-0.189299 0.063964,-0.378598 0.063964,-0.567897l0,-3.154981l0.703604,0l0,3.154981c0,0.315498 -0.063964,0.567897 -0.127928,0.820295c-0.063964,0.252399 -0.255856,0.504797 -0.383784,0.630996c-0.191892,0.189299 -0.383784,0.315498 -0.63964,0.441697c-0.255856,0.126199 -0.575676,0.189299 -0.895496,0.189299c-0.31982,0 -0.63964,-0.0631 -0.895496,-0.189299c-0.255856,-0.126199 -0.447748,-0.252399 -0.63964,-0.441697c-0.191892,-0.189299 -0.31982,-0.378598 -0.383784,-0.630996c-0.063964,-0.252399 -0.127928,-0.504797 -0.127928,-0.820295l0,-3.154981l0.703604,0l0,3.154981c0,0.189299 0,0.441697 0.063964,0.567897c0.063964,0.189299 0.127928,0.315498 0.255856,0.441697c0.127928,0.126199 0.255856,0.252399 0.447748,0.315498c0.191892,0.126199 0.383784,0.126199 0.575676,0.126199z" class="st0"/>
    <path stroke="null" id="svg_12" d="m68.341443,68.562729c0,0 0,0 0,0c0.063964,0 0.063964,0.0631 0.127928,0.0631c0,0 0.063964,0.0631 0.063964,0.0631l3.006306,3.912177c0,-0.0631 0,-0.126199 0,-0.189299c0,-0.0631 0,-0.126199 0,-0.189299l0,-3.659778l0.63964,0l0,5.17417l-0.383784,0c-0.063964,0 -0.127928,0 -0.127928,0c-0.063964,0 -0.063964,-0.0631 -0.127928,-0.126199l-3.006306,-3.912177c0,0.0631 0,0.126199 0,0.189299c0,0.0631 0,0.126199 0,0.189299l0,3.659778l-0.63964,0l0,-5.17417l0.383784,0c0,0 0,0 0.063964,0z" class="st0"/>
    <path stroke="null" id="svg_13" d="m78.000002,71.149814c0,0.378598 -0.063964,0.757196 -0.191892,1.072694c-0.127928,0.315498 -0.31982,0.567897 -0.511712,0.820295c-0.255856,0.252399 -0.511712,0.378598 -0.831532,0.504797c-0.31982,0.126199 -0.63964,0.189299 -1.023423,0.189299l-1.982883,0l0,-5.17417l1.982883,0c0.383784,0 0.767568,0.0631 1.023423,0.189299c0.31982,0.126199 0.575676,0.315498 0.831532,0.504797c0.255856,0.252399 0.383784,0.504797 0.511712,0.820295c0.127928,0.315498 0.191892,0.694096 0.191892,1.072694zm-0.767568,0c0,-0.315498 -0.063964,-0.630996 -0.127928,-0.820295c-0.063964,-0.252399 -0.191892,-0.441697 -0.383784,-0.630996c-0.191892,-0.189299 -0.383784,-0.315498 -0.575676,-0.378598c-0.255856,-0.0631 -0.511712,-0.126199 -0.767568,-0.126199l-1.215315,0l0,4.038376l1.215315,0c0.255856,0 0.511712,-0.0631 0.767568,-0.126199s0.447748,-0.252399 0.575676,-0.378598c0.191892,-0.189299 0.255856,-0.378598 0.383784,-0.630996c0.127928,-0.315498 0.127928,-0.630996 0.127928,-0.946494z" class="st0"/>
   </g>
  </g>
 </g>
</svg>