<svg width="113.4" height="113.4" xmlns="http://www.w3.org/2000/svg">
 <style type="text/css">.st0{opacity:0.15;}
	.st1{fill:#9C9E9F;}</style>

 <g>
  <title>background</title>
  <rect x="-1" y="-1" width="115.4" height="115.4" id="canvas_background" fill="none"/>
 </g>
 <g>
  <title>Layer 1</title>
  <g id="cl_1" class="st0"/>
  <g stroke="null" id="cl_2">
   <g stroke="null" id="svg_1">
    <path stroke="null" class="st1" d="m68.610911,53.034823l0,0c-0.727913,0 -1.325842,-0.567671 -1.325842,-1.258749l0,0c0,-0.691078 0.597929,-1.258749 1.325842,-1.258749l0,0c0.727913,0 1.325842,0.567671 1.325842,1.258749l0,0c0,0.691078 -0.597929,1.258749 -1.325842,1.258749z" id="svg_2"/>
    <path stroke="null" class="st1" d="m38.107883,74.45c-0.199309,0 -0.398619,-0.074044 -0.554601,-0.213905c-0.303297,-0.287949 -0.303297,-0.756895 0,-1.044844l35.763067,-33.953299c0.303297,-0.287949 0.797238,-0.287949 1.100535,0c0.303297,0.287949 0.303297,0.756895 0,1.044844l-35.763067,33.953299c-0.147315,0.139861 -0.346626,0.213905 -0.545935,0.213905z" id="svg_3"/>
    <g stroke="null" id="svg_4">
     <path stroke="null" class="st1" d="m40.196301,68.584068l1.559814,-1.48088l-1.542483,0c-0.667254,0 -1.213188,-0.518308 -1.213188,-1.151796l0,-16.947855c0,-0.633488 0.545935,-1.151796 1.213188,-1.151796l7.686416,0c0.710582,0 1.36917,-0.337311 1.759123,-0.888529l2.409046,-3.414252c0.086657,-0.123407 0.225306,-0.189223 0.381288,-0.189223l8.804283,0c0.147315,0 0.285966,0.065817 0.372622,0.189223l2.036423,2.756083l1.117867,-1.061298l-1.863111,-2.558633c-0.381288,-0.510081 -0.996548,-0.814484 -1.655136,-0.814484l-8.804283,0c-0.675919,0 -1.299845,0.320857 -1.672467,0.847393l-2.409046,3.414252c-0.103988,0.148088 -0.2773,0.238586 -0.467944,0.238586l-7.695082,0c-1.525151,0 -2.773003,1.184705 -2.773003,2.632677l0,16.947855c0,1.447972 1.239185,2.62445 2.755671,2.632677z" id="svg_5"/>
     <path stroke="null" class="st1" d="m73.37701,46.370861l-3.162956,0l-1.559814,1.48088l4.72277,0c0.667254,0 1.213188,0.518308 1.213188,1.151796l0,16.947855c0,0.633488 -0.545935,1.151796 -1.213188,1.151796l-25.000351,0l-1.559814,1.48088l26.560165,0c1.525151,0 2.773003,-1.184705 2.773003,-2.632677l0,-16.947855c0,-1.456199 -1.247851,-2.632677 -2.773003,-2.632677l0,0.000001z" id="svg_6"/>
    </g>
    <g stroke="null" id="svg_7">
     <path stroke="null" class="st1" d="m50.629723,58.678623c-0.233972,-0.633488 -0.363957,-1.316338 -0.363957,-2.02387c0,-3.406025 2.911653,-6.170335 6.499225,-6.170335c0.745244,0 1.464492,0.123407 2.131746,0.345539l1.195858,-1.135342c-1.013879,-0.444264 -2.149077,-0.68285 -3.336269,-0.68285c-4.445469,0 -8.059039,3.430706 -8.059039,7.651216c0,1.127115 0.259969,2.196639 0.719247,3.167439l1.213188,-1.151796l0.000001,-0.000001z" id="svg_8"/>
     <path stroke="null" class="st1" d="m62.475643,53.709446c0.502607,0.872074 0.788573,1.875782 0.788573,2.93708c0,3.406025 -2.911653,6.170335 -6.499225,6.170335c-1.117867,0 -2.175074,-0.271495 -3.093631,-0.748667l-1.143864,1.085979c1.23052,0.723986 2.686346,1.143569 4.237494,1.143569c4.445469,0 8.059039,-3.430706 8.059039,-7.651216c0,-1.472653 -0.441947,-2.854809 -1.204523,-4.023059l-1.143864,1.085979l0.000001,0.000001z" id="svg_9"/>
    </g>
   </g>
  </g>
 </g>
</svg>